<!-- Itasha Corp brand banner — aspect ratio 21:9 (1680×720) — CRT-IC v3 -->
<svg xmlns="http://www.w3.org/2000/svg" viewBox="0 0 1680 720" width="1680" height="720" role="img" aria-label="3TCH — Itasha Corp">
  <defs>
    <pattern id="scan" patternUnits="userSpaceOnUse" width="1680" height="4">
      <rect width="1680" height="2" fill="transparent"/><rect y="2" width="1680" height="2" fill="rgba(0,0,0,0.16)"/>
    </pattern>
    <radialGradient id="vig" cx="50%" cy="48%" r="72%">
      <stop offset="0%" stop-color="transparent"/><stop offset="100%" stop-color="rgba(0,0,0,0.5)"/>
    </radialGradient>
    <linearGradient id="grid" x1="0" y1="0" x2="0" y2="1">
      <stop offset="0%" stop-color="#c084f5" stop-opacity="0"/><stop offset="100%" stop-color="#c084f5" stop-opacity="0.5"/>
    </linearGradient>
    <filter id="phos"><feGaussianBlur in="SourceGraphic" stdDeviation="0.7" result="b"/><feMerge><feMergeNode in="b"/><feMergeNode in="SourceGraphic"/></feMerge></filter>
    <filter id="soft"><feGaussianBlur stdDeviation="2.4"/></filter>
    <filter id="glow"><feGaussianBlur stdDeviation="2.6" result="b"/><feMerge><feMergeNode in="b"/><feMergeNode in="SourceGraphic"/></feMerge></filter>
    <filter id="sigilGlow" x="-70%" y="-70%" width="240%" height="240%"><feGaussianBlur in="SourceGraphic" stdDeviation="1.8" result="sb"><animate attributeName="stdDeviation" values="1.4;3.4;1.4" dur="3.6s" calcMode="spline" keySplines="0.4 0 0.6 1;0.4 0 0.6 1" repeatCount="indefinite"/></feGaussianBlur><feMerge><feMergeNode in="sb"/><feMergeNode in="SourceGraphic"/></feMerge></filter>
    <radialGradient id="sigilBloom" cx="50%" cy="50%" r="50%"><stop offset="0%" stop-color="#c084f5" stop-opacity="0.28"/><stop offset="42%" stop-color="#c084f5" stop-opacity="0.1"/><stop offset="100%" stop-color="#c084f5" stop-opacity="0"/></radialGradient>
    <path id="ringPathOuter" d="M 0 -64 A 64 64 0 1 1 -0.01 -64" fill="none"/>
    <clipPath id="sc"><rect x="28" y="22" width="1624" height="672" rx="6"/></clipPath>
    <radialGradient id="glass" cx="36%" cy="22%" r="62%"><stop offset="0%" stop-color="#ffffff" stop-opacity="0.06"/><stop offset="55%" stop-color="#ffffff" stop-opacity="0"/></radialGradient>
    <pattern id="phosmask" width="3" height="1" patternUnits="userSpaceOnUse"><rect width="1" height="1" x="0" fill="#ff2a2a"/><rect width="1" height="1" x="1" fill="#2aff2a"/><rect width="1" height="1" x="2" fill="#2a2aff"/></pattern>
    <path id="ringPath" d="M 0 -38 A 38 38 0 1 1 -0.01 -38" fill="none"/>
    <radialGradient id="radarSweep" cx="0" cy="0" r="62"><stop offset="0%" stop-color="#c084f5" stop-opacity="0.45"/><stop offset="100%" stop-color="#c084f5" stop-opacity="0"/></radialGradient>
  </defs>
  <style>
    text { font-family: 'JetBrains Mono','SF Mono','Fira Code','Cascadia Code',Consolas,monospace; }
    @keyframes sweep { 0% { transform: translateY(0); } 100% { transform: translateY(672px); } }
    @keyframes flicker { 0%,96%,100% { opacity: 1; } 97% { opacity: 0.97; } 98% { opacity: 0.995; } }
    @keyframes bootReveal { 0% { opacity: 0; } 100% { opacity: 0.92; } }
    @keyframes curBlink { 0%,50% { opacity: 1; } 51%,100% { opacity: 0; } }
    @keyframes heartbeat { 0%,100% { transform: scale(1); opacity: 0.55; } 15% { transform: scale(1.3); opacity: 0.95; } 30% { transform: scale(1); opacity: 0.55; } 50% { transform: scale(1.1); opacity: 0.8; } }
    @keyframes edgeGlow { 0% { stroke-dashoffset: 4600; } 100% { stroke-dashoffset: 0; } }
    @keyframes phosphorBloom { 0%,100% { opacity: 0; } 50% { opacity: 0.02; } }
    @keyframes nodeBlink { 0%,100% { opacity: 0.9; } 50% { opacity: 0.35; } }
    @keyframes kanjiPulse { 0%,100% { opacity: 0.1; } 50% { opacity: 0.2; } }
    @keyframes rollBar { 0% { transform: translateY(-70px); } 100% { transform: translateY(760px); } }
    @keyframes dataBlink { 0%,100% { opacity: 0.12; } 50% { opacity: 0.7; } }
    @keyframes titleGlitch { 0%,90%,100% { transform: translate(0,0); } 91% { transform: translate(-2px,1px); } 94% { transform: translate(2px,-1px); } 97% { transform: translate(-1px,0); } }
    @keyframes okPulse { 0%,100% { opacity: 0.5; } 50% { opacity: 1; } }
    @keyframes linePulse { 0%,100% { opacity: 0.8; } 50% { opacity: 1; } }
    @keyframes titleBreathe { 0%,100% { opacity: 1; } 50% { opacity: 0.85; } }
    @keyframes crtBlank { 0%,90% { opacity: 0; } 91.5% { opacity: 1; } 97% { opacity: 1; } 98.6% { opacity: 0; } 100% { opacity: 0; } }
    @keyframes crtLine { 0%,89.5% { opacity: 0; transform: scaleY(1); } 90.4% { opacity: 0.95; transform: scaleY(0.03); } 91.4% { opacity: 0; transform: scaleY(0.01); } 97.4% { opacity: 0; transform: scaleY(0.02); } 98.2% { opacity: 0.95; transform: scaleY(0.08); } 99.2% { opacity: 0; transform: scaleY(1); } 100% { opacity: 0; } }
    @media (prefers-reduced-motion: reduce) { * { animation: none !important; } }
  </style>

  <rect x="0" y="0" width="1680" height="720" rx="14" fill="#0b0f12"/>
  <rect x="2" y="2" width="1676" height="716" rx="13" fill="#1a242b" stroke="#2a3a42" stroke-width="1"/>
  <line x1="24" y1="13" x2="1656" y2="13" stroke="#2a3a42" stroke-width="0.5"/>
  <line x1="24" y1="700" x2="1656" y2="700" stroke="#2a3a42" stroke-width="0.5"/>
  <rect x="28" y="22" width="1624" height="672" rx="6" fill="#070a0c"/>

  <g clip-path="url(#sc)">
    <g stroke="url(#grid)" stroke-width="0.6" opacity="0.5">
      <line x1="840" y1="492" x2="40" y2="694"/><line x1="840" y1="492" x2="280" y2="694"/>
      <line x1="840" y1="492" x2="520" y2="694"/><line x1="840" y1="492" x2="700" y2="694"/>
      <line x1="840" y1="492" x2="840" y2="694"/><line x1="840" y1="492" x2="980" y2="694"/>
      <line x1="840" y1="492" x2="1180" y2="694"/><line x1="840" y1="492" x2="1400" y2="694"/>
      <line x1="840" y1="492" x2="1640" y2="694"/>
    </g>
    <g stroke="#c084f5" stroke-width="0.5" opacity="0.2">
      <line x1="120" y1="582" x2="1560" y2="582"/><line x1="80" y1="630" x2="1600" y2="630"/><line x1="48" y1="678" x2="1632" y2="678"/>
    </g>
    <!-- ambient "the wired" data nodes -->
    <g fill="#c084f5">
      <circle cx="460" cy="624" r="1.6" style="animation: dataBlink 2.6s ease-in-out 0s infinite;"/>
      <circle cx="920" cy="666" r="1.6" style="animation: dataBlink 3.1s ease-in-out 0.8s infinite;"/>
      <circle cx="1300" cy="600" r="1.6" style="animation: dataBlink 2.4s ease-in-out 1.4s infinite;"/>
      <circle cx="650" cy="678" r="1.6" fill="#d4abf8" style="animation: dataBlink 3.4s ease-in-out 2s infinite;"/>
    </g>
    <!-- CRT roll bar: soft band drifting down the screen -->
    <rect x="28" y="22" width="1624" height="46" fill="#c084f5" opacity="0.035" style="animation: rollBar 7s linear infinite;"/>
    <rect x="28" y="22" width="1624" height="3" fill="#c084f5" opacity="0.05" style="animation: sweep 9s linear infinite;"/>
    <rect x="28" y="22" width="1624" height="672" fill="#ffffff" opacity="0" style="animation: phosphorBloom 8s ease-in-out infinite;"/>

    <!-- ============================================================ -->
    <!-- CENTRAL ANIMATED DAEMON-SIGIL (SMIL — load-bearing motion)   -->
    <!-- Layered summoning circle: containment ring + graticule +     -->
    <!-- glyph/kanji band + faint kamea grid + odd-count bind-runes + -->
    <!-- per-repo M-14 -10 L-6 -10 L-6 -2 L-14 -2 Z M-2 4 L6 4 L6 12 L-2 12 Z M10 -10 L16 -10 L16 -2 L10 -2 Z M-6 -6 L13 -6 L13 -2 M2 -2 L2 4 core glyph. Resting frame = assembled.-->
    <!-- Centred anchor at the 21:9 canvas centre (840,420).          -->
    <!-- ============================================================ -->
    <g transform="translate(840,420)" opacity="0.9" filter="url(#sigilGlow)">
      <!-- breathing wrapper -->
      <animateTransform attributeName="transform" type="scale" additive="sum" values="1;1.022;1" dur="5s" repeatCount="indefinite"/>
      <!-- summoned-seal bloom backdrop: makes the sigil read as the anchor -->
      <circle r="104" fill="url(#sigilBloom)"/>
      <!-- faint kamea (magic-square) grid behind center -->
      <g stroke="#c084f5" stroke-width="0.5" opacity="0.2">
        <line x1="-26" y1="-26" x2="26" y2="-26"/><line x1="-26" y1="-9" x2="26" y2="-9"/>
        <line x1="-26" y1="9" x2="26" y2="9"/><line x1="-26" y1="26" x2="26" y2="26"/>
        <line x1="-26" y1="-26" x2="-26" y2="26"/><line x1="-9" y1="-26" x2="-9" y2="26"/>
        <line x1="9" y1="-26" x2="9" y2="26"/><line x1="26" y1="-26" x2="26" y2="26"/>
      </g>
      <!-- outer kanji band on its own wide ring (counter-rotates) -->
      <g>
        <animateTransform attributeName="transform" type="rotate" from="0" to="360" dur="60s" repeatCount="indefinite"/>
        <circle r="64" stroke="#c084f5" stroke-width="0.5" fill="none" opacity="0.35"/>
        <text font-size="11.5" fill="#c084f5" opacity="0.85" letter-spacing="2.2" font-family="'Noto Sans JP','Yu Gothic','Hiragino Sans',sans-serif">
          <textPath href="#ringPathOuter" startOffset="4%">腐刻 · 3TCH · 腐刻 · 3TCH ·</textPath>
        </text>
      </g>
      <!-- outer containment ring + radial graticule (rotates one way) -->
      <g stroke="#c084f5" fill="none">
        <animateTransform attributeName="transform" type="rotate" from="0" to="360" dur="48s" repeatCount="indefinite"/>
        <circle r="82" stroke-width="1.5" opacity="0.95"/>
        <circle r="76" stroke-width="1.0" opacity="0.75"/>
        <g stroke-width="1.1" opacity="0.85">
          <line x1="0" y1="-82" x2="0" y2="-76"/><line x1="41" y1="-71" x2="38" y2="-66"/>
          <line x1="71" y1="-41" x2="66" y2="-38"/><line x1="82" y1="0" x2="76" y2="0"/>
          <line x1="71" y1="41" x2="66" y2="38"/><line x1="41" y1="71" x2="38" y2="66"/>
          <line x1="0" y1="82" x2="0" y2="76"/><line x1="-41" y1="71" x2="-38" y2="66"/>
          <line x1="-71" y1="41" x2="-66" y2="38"/><line x1="-82" y1="0" x2="-76" y2="0"/>
          <line x1="-71" y1="-41" x2="-66" y2="-38"/><line x1="-41" y1="-71" x2="-38" y2="-66"/>
        </g>
      </g>
      <!-- inner glyph / kanji band on a hidden ring (rotates the other way) -->
      <g>
        <animateTransform attributeName="transform" type="rotate" from="360" to="0" dur="32s" repeatCount="indefinite"/>
        <text font-size="11" fill="#c084f5" opacity="0.9" font-family="'Noto Sans JP','Yu Gothic','Hiragino Sans',sans-serif">
          <textPath href="#ringPath" startOffset="6%">腐刻 · 3TCH · 腐刻 ·</textPath>
        </text>
      </g>
      <!-- odd-count (5) bind-rune spikes from ring toward center -->
      <g stroke="#c084f5" stroke-width="1.3" opacity="0.78">
        <path d="M0 -73 L0 -40 M-3.8 -47 L0 -40 L3.8 -47"/>
        <path d="M69.4 -22.5 L38 -12.3 M35.6 -18.2 L38 -12.3 L32.4 -13.4"/>
        <path d="M42.9 59 L23.5 32.3 M24.7 38.8 L23.5 32.3 L17.7 34.2"/>
        <path d="M-42.9 59 L-23.5 32.3 M-17.7 34.2 L-23.5 32.3 L-24.7 38.8"/>
        <path d="M-69.4 -22.5 L-38 -12.3 M-32.4 -13.4 L-38 -12.3 L-35.6 -18.2"/>
      </g>
      <!-- central CORE GLYPH: per-repo domain monogram, draws on (pathLength=200) -->
      <g stroke="#c084f5" stroke-width="1.9" fill="none" stroke-linecap="round" stroke-linejoin="miter" transform="scale(1.85)">
        <path d="M-14 -10 L-6 -10 L-6 -2 L-14 -2 Z M-2 4 L6 4 L6 12 L-2 12 Z M10 -10 L16 -10 L16 -2 L10 -2 Z M-6 -6 L13 -6 L13 -2 M2 -2 L2 4" pathLength="200" stroke-dasharray="200" stroke-dashoffset="0" filter="url(#glow)">
          <animate attributeName="stroke-dashoffset" from="200" to="0" dur="2.4s" begin="0s" fill="freeze" calcMode="spline" keySplines="0.6 0 0.2 1"/>
          <animate attributeName="stroke-width" values="1.9;1.9;3.0;1.9" keyTimes="0;0.85;0.9;1" dur="6s" begin="2.4s" repeatCount="indefinite"/>
        </path>
      </g>
      <!-- terminal pommel dots (goetic signature) -->
      <g fill="#c084f5">
        <circle cx="0" cy="-40" r="2.4"/><circle cx="0" cy="40" r="2.4"/><circle cx="-35" cy="0" r="2.0"/><circle cx="35" cy="0" r="2.0"/>
      </g>
    </g>
  </g>
  <rect x="28" y="22" width="1624" height="672" rx="6" fill="url(#scan)"/>
  <rect x="28" y="22" width="1624" height="672" rx="6" fill="url(#vig)"/>
  <rect x="28" y="22" width="1624" height="672" rx="6" fill="url(#phosmask)" opacity="0.04"/>
  <rect x="28" y="22" width="1624" height="672" rx="6" fill="url(#glass)"/>
  <rect x="28" y="22" width="1624" height="672" rx="6" fill="none" stroke="#c084f5" stroke-width="1" opacity="0.07" stroke-dasharray="22,4600" style="animation: edgeGlow 11s linear infinite;"/>
  <rect x="28" y="22" width="1624" height="672" rx="6" fill="none" stroke="#1a242b"/>

  <g stroke="#c084f5" stroke-width="1.4" fill="none" opacity="0.55">
    <path d="M56 54 h26 M56 54 v26"/><path d="M1624 54 h-26 M1624 54 v26"/>
    <path d="M56 662 h26 M56 662 v-26"/><path d="M1624 662 h-26 M1624 662 v-26"/>
  </g>

    <text x="1604" y="118" text-anchor="end" font-size="48" fill="#c084f5" opacity="0.13" font-family="'Noto Sans JP','Yu Gothic','Hiragino Sans',sans-serif" style="animation: kanjiPulse 6s ease-in-out infinite;">腐刻</text>
  <g style="animation: flicker 7s infinite;">
    <text x="840" y="92" text-anchor="middle" font-size="14" fill="#5a6b73" letter-spacing="8" filter="url(#phos)" style="font-family: 'Times New Roman','Times','Matisse',serif; font-weight: 700; transform: scaleX(0.82); transform-origin: 840px 92px; animation: titleBreathe 6s ease-in-out infinite;">I T A S H A . C O R P</text>
    <g font-size="68" font-weight="bold" letter-spacing="6" text-anchor="middle">
      <text x="843" y="168" fill="#d4abf8" opacity="0.5" filter="url(#soft)" style="animation: titleGlitch 5.5s steps(1) infinite; transform-origin: 840px 168px;">3TCH</text>
      <text x="837" y="168" fill="#c084f5" opacity="0.5" filter="url(#soft)" style="animation: titleGlitch 6.3s steps(1) 0.1s infinite; transform-origin: 840px 168px;">3TCH</text>
      <text x="840" y="168" fill="#e9f7ff" filter="url(#glow)" style="animation: titleBreathe 4s ease-in-out infinite;">3TCH</text>
    </g>
    <text x="840" y="204" text-anchor="middle" font-size="15" fill="#c084f5" letter-spacing="3" filter="url(#phos)">comfyui etch graph</text>

    <!-- content-band lift: boot block + right instrument shift up uniformly so -->
    <!-- the lowest content clears the bottom corner brackets (plan-611). -->
    <g transform="translate(0,-16)">
    <g filter="url(#phos)">
      <text x="80" y="262" font-size="13" fill="#5a6b73">ETCH-CORE --boot</text>
      <line x1="80" y1="272" x2="800" y2="272" stroke="#5a6b73" stroke-width="0.8" opacity="0.7"/>
      <text x="100" y="304" font-size="13.5" fill="#c084f5" xml:space="preserve" style="animation: bootReveal 0.35s ease-out 0.2s both, linePulse 3.6s ease-in-out 0.0s infinite;"><tspan>&gt; load graph</tspan><tspan x="248" fill="#6fb89a" style="animation: okPulse 2s ease-in-out 0.6s infinite;">[ OK ]</tspan></text>
      <text x="100" y="338" font-size="13.5" fill="#c084f5" xml:space="preserve" style="animation: bootReveal 0.35s ease-out 0.5s both, linePulse 3.6s ease-in-out 0.4s infinite;"><tspan>&gt; resolve nodes</tspan><tspan x="248" fill="#6fb89a" style="animation: okPulse 2s ease-in-out 1.0s infinite;">[ OK ]</tspan></text>
      <text x="100" y="372" font-size="13.5" fill="#c084f5" xml:space="preserve" style="animation: bootReveal 0.35s ease-out 0.8s both, linePulse 3.6s ease-in-out 0.8s infinite;"><tspan>&gt; queue prompt</tspan><tspan x="248" fill="#6fb89a" style="animation: okPulse 2s ease-in-out 1.4s infinite;">[ OK ]</tspan></text>
      <text x="100" y="406" font-size="13.5" fill="#c084f5" xml:space="preserve" style="animation: bootReveal 0.35s ease-out 1.1s both, linePulse 3.6s ease-in-out 1.2s infinite;"><tspan>&gt; etch latents</tspan><tspan x="248" fill="#6fb89a" style="animation: okPulse 2s ease-in-out 1.8s infinite;">[ OK ]</tspan></text>
      <text x="100" y="440" font-size="13.5" fill="#c084f5" xml:space="preserve" style="animation: bootReveal 0.35s ease-out 1.4s both, linePulse 3.6s ease-in-out 1.6s infinite;"><tspan>&gt; tag provenance</tspan><tspan x="248" fill="#6fb89a" style="animation: okPulse 2s ease-in-out 2.2s infinite;">[ OK ]</tspan></text>
      <line x1="80" y1="474" x2="800" y2="474" stroke="#5a6b73" stroke-width="0.8" opacity="0.7"/>
      <text x="80" y="512" font-size="14" fill="#6fb89a">root@itasha:etch$<tspan dx="6" fill="#c084f5" style="animation: curBlink 1.1s step-end infinite;">█</tspan></text>
      <text x="80" y="548" font-size="12" fill="#5a6b73" letter-spacing="2">local · gpu · provenance-tagged</text>
    </g>

    <!-- ============================================================ -->
    <!-- WIDE RIGHT-SIDE INSTRUMENT CLUSTER (uses the right third)     -->
    <!-- Layered: oscilloscope/ECG waveform w/ traveling trace-dot     -->
    <!-- (animateMotion+mpath) + elliptical radar sweep w/ blips +     -->
    <!-- spectrum-bar equalizer + node-graph + per-repo GRAPH // node pipeline      -->
    <!-- status panel. All load-bearing motion is SMIL (GitHub <img>). -->
    <!-- ============================================================ -->
    <g transform="translate(1090, 258)" style="animation: flicker 9s infinite;" opacity="0.92">
      <text x="20" y="20" fill="#c084f5" font-size="9.5" letter-spacing="1.6" opacity="0.7">GRAPH // node pipeline</text>

      <!-- BESPOKE per-repo right instrument (plan-611). The       <g filter="url(#phos)">
        <g stroke="#c084f5" stroke-width="1.1" fill="none" opacity="0.4">
          <path d="M120 70 C170 70 170 130 220 130"/><path d="M220 130 C270 130 270 70 320 70"/>
          <path d="M120 190 C180 190 180 130 220 130"/><path d="M320 70 C380 70 380 140 430 140"/>
        </g>
        <g>
          <g><rect x="40" y="50" width="80" height="40" rx="4" fill="#c084f5" fill-opacity="0.1" stroke="#c084f5" stroke-width="1"/><text x="80" y="74" text-anchor="middle" font-size="9" fill="#c084f5">load</text></g>
          <g><rect x="40" y="170" width="80" height="40" rx="4" fill="#c084f5" fill-opacity="0.1" stroke="#c084f5" stroke-width="1"/><text x="80" y="194" text-anchor="middle" font-size="9" fill="#c084f5">prompt</text></g>
          <g><rect x="180" y="110" width="80" height="40" rx="4" fill="#d4abf8" fill-opacity="0.14" stroke="#d4abf8" stroke-width="1.2"/><text x="220" y="134" text-anchor="middle" font-size="9" fill="#d4abf8">sample</text></g>
          <g><rect x="280" y="50" width="80" height="40" rx="4" fill="#c084f5" fill-opacity="0.1" stroke="#c084f5" stroke-width="1"/><text x="320" y="74" text-anchor="middle" font-size="9" fill="#c084f5">vae</text></g>
          <g><rect x="390" y="120" width="80" height="40" rx="4" fill="#c084f5" fill-opacity="0.1" stroke="#c084f5" stroke-width="1"/><text x="430" y="144" text-anchor="middle" font-size="9" fill="#c084f5">save</text></g>
        </g>
        <circle r="2.6" fill="#e9f7ff" filter="url(#glow)"><animateMotion dur="3s" repeatCount="indefinite" path="M120 70 C170 70 170 130 220 130 C270 130 270 70 320 70 C380 70 380 140 430 140"/></circle>
      </g>
      <text x="40" y="226" font-size="10" fill="#6fb89a" font-family="monospace">etch latents · provenance-tagged</text>
        -->
      <!-- placeholder is filled by repo_motif_library.get_motif(MOTIF_KEY).   -->
      <!-- Authored once at header scale; the social card reuses the same      -->
      <!-- fragment via       <g filter="url(#phos)">
        <g stroke="#c084f5" stroke-width="1.1" fill="none" opacity="0.4">
          <path d="M120 70 C170 70 170 130 220 130"/><path d="M220 130 C270 130 270 70 320 70"/>
          <path d="M120 190 C180 190 180 130 220 130"/><path d="M320 70 C380 70 380 140 430 140"/>
        </g>
        <g>
          <g><rect x="40" y="50" width="80" height="40" rx="4" fill="#c084f5" fill-opacity="0.1" stroke="#c084f5" stroke-width="1"/><text x="80" y="74" text-anchor="middle" font-size="9" fill="#c084f5">load</text></g>
          <g><rect x="40" y="170" width="80" height="40" rx="4" fill="#c084f5" fill-opacity="0.1" stroke="#c084f5" stroke-width="1"/><text x="80" y="194" text-anchor="middle" font-size="9" fill="#c084f5">prompt</text></g>
          <g><rect x="180" y="110" width="80" height="40" rx="4" fill="#d4abf8" fill-opacity="0.14" stroke="#d4abf8" stroke-width="1.2"/><text x="220" y="134" text-anchor="middle" font-size="9" fill="#d4abf8">sample</text></g>
          <g><rect x="280" y="50" width="80" height="40" rx="4" fill="#c084f5" fill-opacity="0.1" stroke="#c084f5" stroke-width="1"/><text x="320" y="74" text-anchor="middle" font-size="9" fill="#c084f5">vae</text></g>
          <g><rect x="390" y="120" width="80" height="40" rx="4" fill="#c084f5" fill-opacity="0.1" stroke="#c084f5" stroke-width="1"/><text x="430" y="144" text-anchor="middle" font-size="9" fill="#c084f5">save</text></g>
        </g>
        <circle r="2.6" fill="#e9f7ff" filter="url(#glow)"><animateMotion dur="3s" repeatCount="indefinite" path="M120 70 C170 70 170 130 220 130 C270 130 270 70 320 70 C380 70 380 140 430 140"/></circle>
      </g>
      <text x="40" y="226" font-size="10" fill="#6fb89a" font-family="monospace">etch latents · provenance-tagged</text>
     (scale 0.82).                    -->
      <g transform="translate(0, 8)">
              <g filter="url(#phos)">
        <g stroke="#c084f5" stroke-width="1.1" fill="none" opacity="0.4">
          <path d="M120 70 C170 70 170 130 220 130"/><path d="M220 130 C270 130 270 70 320 70"/>
          <path d="M120 190 C180 190 180 130 220 130"/><path d="M320 70 C380 70 380 140 430 140"/>
        </g>
        <g>
          <g><rect x="40" y="50" width="80" height="40" rx="4" fill="#c084f5" fill-opacity="0.1" stroke="#c084f5" stroke-width="1"/><text x="80" y="74" text-anchor="middle" font-size="9" fill="#c084f5">load</text></g>
          <g><rect x="40" y="170" width="80" height="40" rx="4" fill="#c084f5" fill-opacity="0.1" stroke="#c084f5" stroke-width="1"/><text x="80" y="194" text-anchor="middle" font-size="9" fill="#c084f5">prompt</text></g>
          <g><rect x="180" y="110" width="80" height="40" rx="4" fill="#d4abf8" fill-opacity="0.14" stroke="#d4abf8" stroke-width="1.2"/><text x="220" y="134" text-anchor="middle" font-size="9" fill="#d4abf8">sample</text></g>
          <g><rect x="280" y="50" width="80" height="40" rx="4" fill="#c084f5" fill-opacity="0.1" stroke="#c084f5" stroke-width="1"/><text x="320" y="74" text-anchor="middle" font-size="9" fill="#c084f5">vae</text></g>
          <g><rect x="390" y="120" width="80" height="40" rx="4" fill="#c084f5" fill-opacity="0.1" stroke="#c084f5" stroke-width="1"/><text x="430" y="144" text-anchor="middle" font-size="9" fill="#c084f5">save</text></g>
        </g>
        <circle r="2.6" fill="#e9f7ff" filter="url(#glow)"><animateMotion dur="3s" repeatCount="indefinite" path="M120 70 C170 70 170 130 220 130 C270 130 270 70 320 70 C380 70 380 140 430 140"/></circle>
      </g>
      <text x="40" y="226" font-size="10" fill="#6fb89a" font-family="monospace">etch latents · provenance-tagged</text>
    
      </g>
    </g>
    </g>
  </g>

  <g>
    <circle cx="56" cy="707" r="3.5" fill="#6fb89a" opacity="0.7" style="animation: heartbeat 2.4s ease-in-out infinite; transform-origin: 56px 707px;"/>
    <circle cx="71" cy="707" r="3" fill="#c084f5" opacity="0.45"/>
    <circle cx="86" cy="707" r="3" fill="#d4abf8" opacity="0.4"/>
    <text x="108" y="707" font-size="9" fill="#3a4a52" letter-spacing="3.2" dominant-baseline="central">ITASHA.CORP</text>
    <text x="840" y="707" font-size="9" fill="#3a4a52" letter-spacing="3" dominant-baseline="central" text-anchor="middle">ETCH-CORE · present day · present time</text>
    <text x="1608" y="707" font-size="9" fill="#3a4a52" letter-spacing="2.4" dominant-baseline="central" text-anchor="end">CRT-IC v3</text>
    <circle cx="1624" cy="707" r="4" fill="#6fb89a" opacity="0.5"/>
    <circle cx="1624" cy="707" r="2" fill="#6fb89a" opacity="0.95" style="animation: heartbeat 2.4s ease-in-out infinite; transform-origin: 1624px 707px;"/>
  </g>
  <rect x="28" y="22" width="1624" height="672" rx="6" fill="#050608" opacity="0" style="animation: crtBlank 14s ease-in-out infinite;"/>
  <rect x="28" y="357.0" width="1624" height="3" fill="#e9f7ff" opacity="0" style="animation: crtLine 14s ease-in-out infinite; transform-origin: 840px 358.5px;"/>
</svg>
